# File created by Blade
# Date/Time:  Tue Apr 07 21:33:03 2015
# Frame Rate: 120.000 fps
#------------------------------------------------------
:FULLY-SPECIFIED
:DEGREES
395
root 34.686197 32.400447 -14.059167 39.499116 -77.240756 -15.283085
Spine 1.091826 -4.331046 1.336928
Head 34.918848 -7.373757 -3.972092
LeftShoulder -19.843388 46.994878 6.128599
LeftArm 53.981952 4.713439 -79.867259
LeftForeArm -2.197289 -0.000000 35.280235
LeftHand 5.971687 0.000000 -3.745877
LeftHandThumb1 -26.253704 0.000000 33.147579
RightShoulder -4.677443 -8.489908 -17.591990
RightArm 13.509805 -8.305439 88.304452
RightForeArm -1.067972 0.000000 34.239899
RightHand 5.910910 0.000000 3.265231
RightHandThumb1 -24.326973 -0.000000 -32.862282
LeftUpLeg -28.101872 3.287478 -0.929686
LeftLeg 9.394359 -0.000000 -0.000000
LeftFoot -9.820473 14.507109 -14.135952
LeftToeBase -10.670015 -0.000000 0.000000
RightUpLeg -36.660229 10.115849 -1.278047
RightLeg 18.392756 -0.000000 -0.000000
RightFoot -8.192051 -12.375093 9.862930
RightToeBase -5.407374 -0.000000 0.000000
396
root 34.742208 32.385129 -14.065728 39.112857 -77.338252 -14.962408
Spine 1.200252 -4.417237 1.179351
Head 34.903938 -7.181886 -3.880573
LeftShoulder -19.754512 46.922994 6.245413
LeftArm 54.022605 4.628556 -79.912405
LeftForeArm -2.254304 -0.000000 35.431253
LeftHand 5.998377 0.000000 -3.643443
LeftHandThumb1 -26.253704 0.000000 33.147579
RightShoulder -4.676353 -8.496093 -17.624640
RightArm 13.503111 -8.483719 88.399660
RightForeArm -0.839029 -0.000000 34.369972
RightHand 5.890293 -0.000000 3.915206
RightHandThumb1 -24.326973 -0.000000 -32.862282
LeftUpLeg -28.134177 3.361868 -1.086981
LeftLeg 9.404784 -0.000000 -0.000000
LeftFoot -9.803112 14.501878 -13.948780
LeftToeBase -10.731394 -0.000000 0.000000
RightUpLeg -37.070652 9.816787 -1.202329
RightLeg 19.588907 -0.000000 -0.000000
RightFoot -8.673241 -12.454498 10.033935
RightToeBase -5.241498 -0.000000 0.000000
397
root 34.781580 32.372963 -14.090269 39.100750 -77.275746 -15.095751
Spine 1.341204 -4.513602 1.167622
Head 34.949632 -7.043183 -3.749373
LeftShoulder -19.726274 46.825281 6.320337
LeftArm 54.125394 4.598840 -79.886444
LeftForeArm -2.293558 -0.000000 35.484789
LeftHand 5.922531 0.000000 -3.476524
LeftHandThumb1 -26.253704 0.000000 33.147579
RightShoulder -4.702041 -8.560206 -17.570999
RightArm 13.500728 -8.551527 88.481584
RightForeArm -0.904685 -0.000000 34.532019
RightHand 5.862954 -0.000000 4.050744
RightHandThumb1 -24.326973 -0.000000 -32.862282
LeftUpLeg -28.100610 3.502851 -1.068605
LeftLeg 9.453145 -0.000000 -0.000000
LeftFoot -9.828871 14.344654 -13.785510
LeftToeBase -10.751878 -0.000000 0.000000
RightUpLeg -37.331943 9.855151 -1.134008
RightLeg 20.712677 -0.000000 -0.000000
RightFoot -9.229495 -12.838859 10.637180
RightToeBase -5.098315 -0.000000 0.000000
398
root 34.825689 32.363405 -14.113165 39.020876 -77.230916 -15.126368
Spine 1.440775 -4.622354 1.137908
Head 34.985667 -6.894893 -3.637153
LeftShoulder -19.698997 46.784726 6.382915
LeftArm 54.243764 4.573798 -79.867484
LeftForeArm -2.285558 -0.000000 35.555971
LeftHand 6.043752 -0.000000 -3.504898
LeftHandThumb1 -26.253704 0.000000 33.147579
RightShoulder -4.698563 -8.606476 -17.525286
RightArm 13.506685 -8.593843 88.552253
RightForeArm -1.165232 -0.000000 34.652818
RightHand 5.865635 -0.000000 4.131049
RightHandThumb1 -24.326973 -0.000000 -32.862282
LeftUpLeg -28.158883 3.702699 -1.114930
LeftLeg 9.603308 -0.000000 -0.000000
LeftFoot -9.825844 14.133350 -13.587473
LeftToeBase -10.757225 -0.000000 0.000000
RightUpLeg -37.566810 9.849439 -1.065407
RightLeg 21.770867 -0.000000 -0.000000
RightFoot -9.763462 -13.314400 11.022982
RightToeBase -5.058612 -0.000000 0.000000
399
root 34.866319 32.354399 -14.132967 38.760226 -77.221994 -14.982597
Spine 1.529050 -4.665678 1.059222
Head 35.019397 -6.805772 -3.528601
LeftShoulder -19.555603 46.615811 6.549672
LeftArm 54.197713 4.568832 -79.874804
LeftForeArm -2.266367 -0.000000 35.657625
LeftHand 6.012746 0.000000 -3.431070
LeftHandThumb1 -26.253704 0.000000 33.147579
RightShoulder -4.733126 -8.666980 -17.488710
RightArm 13.511344 -8.737795 88.602975
RightForeArm -1.110981 0.000000 34.749493
RightHand 5.865546 0.000000 3.955677
RightHandThumb1 -24.326973 -0.000000 -32.862282
LeftUpLeg -28.221896 3.908653 -1.223411
LeftLeg 9.800782 -0.000000 -0.000000
LeftFoot -9.821877 13.950095 -13.408616
LeftToeBase -10.783465 -0.000000 0.000000
RightUpLeg -37.776457 9.796728 -1.019444
RightLeg 22.890776 -0.000000 -0.000000
RightFoot -10.333463 -13.742184 11.238008
RightToeBase -5.146783 -0.000000 0.000000
400
root 34.903462 32.348587 -14.159314 38.698427 -77.127034 -15.038760
Spine 1.587543 -4.739918 1.079277
Head 35.075788 -6.709444 -3.430392
LeftShoulder -19.534670 46.579824 6.591901
LeftArm 54.360869 4.585634 -79.861953
LeftForeArm -2.324518 -0.000000 35.620277
LeftHand 5.922748 -0.000000 -3.181972
LeftHandThumb1 -26.253704 0.000000 33.147579
RightShoulder -4.748069 -8.745532 -17.445076
RightArm 13.526945 -8.767518 88.671867
RightForeArm -1.193401 -0.000000 34.817415
RightHand 5.890469 -0.000000 4.021299
RightHandThumb1 -24.326973 -0.000000 -32.862282
LeftUpLeg -28.274802 4.032727 -1.206754
LeftLeg 9.959388 -0.000000 -0.000000
LeftFoot -9.801943 13.799836 -13.264763
LeftToeBase -10.815429 -0.000000 0.000000
RightUpLeg -37.897594 9.835240 -0.953953
RightLeg 23.893927 -0.000000 -0.000000
RightFoot -10.917833 -14.349269 11.573674
RightToeBase -5.052077 -0.000000 0.000000
401
root 34.934352 32.340285 -14.179218 38.185435 -77.067329 -14.673605
Spine 1.662142 -4.854894 1.003637
Head 35.128302 -6.615517 -3.363140
LeftShoulder -19.604364 46.667426 6.517599
LeftArm 54.614714 4.597683 -79.793132
LeftForeArm -2.336965 0.000000 35.647113
LeftHand 6.087290 -0.000000 -3.361746
LeftHandThumb1 -26.253704 0.000000 33.147579
RightShoulder -4.754003 -8.795581 -17.401069
RightArm 13.509315 -8.836200 88.719934
RightForeArm -1.394895 -0.000000 34.880668
RightHand 5.939022 -0.000000 4.100564
RightHandThumb1 -24.326973 -0.000000 -32.862282
LeftUpLeg -28.266322 4.089112 -1.277600
LeftLeg 10.106066 -0.000000 -0.000000
LeftFoot -9.760899 13.696740 -13.089188
LeftToeBase -10.840825 -0.000000 0.000000
RightUpLeg -38.006172 9.686603 -0.883098
RightLeg 25.076888 -0.000000 -0.000000
RightFoot -11.489820 -14.937503 11.608310
RightToeBase -5.120691 -0.000000 0.000000
